<svg data-v-423bf9ae="" xmlns="http://www.w3.org/2000/svg" viewBox="0 0 650 90" class="iconLeft"><!----><defs data-v-423bf9ae=""><linearGradient data-v-423bf9ae="" gradientTransform="rotate(25)" id="1eca1502-7610-4dea-8836-7948b180ab87" x1="0%" y1="0%" x2="100%" y2="0%"><stop data-v-423bf9ae="" offset="0%" style="stop-color: rgb(222, 56, 55); stop-opacity: 1;"></stop><stop data-v-423bf9ae="" offset="100%" style="stop-color: rgb(210, 212, 214); stop-opacity: 1;"></stop></linearGradient></defs><!----><g data-v-423bf9ae="" id="12c4d024-2c63-47c4-b27f-7b11c85d0dd3" fill="#ffffff" transform="matrix(4.966871763892457,0,0,4.966871763892457,184.9818026255932,-3.5759078895594527)"><path d="M9.35 15.29C9.72 15.12 10.07 14.92 10.40 14.69L10.40 14.67L10.42 14.67C10.42 14.66 10.42 14.66 10.43 14.66C10.54 14.56 10.56 14.38 10.44 14.27L9.39 13.02C9.31 12.91 9.14 12.88 9.03 12.95C9.03 12.96 9.02 12.96 9.02 12.96C7.42 14.04 5.22 13.76 3.95 12.26C2.58 10.64 2.77 8.22 4.38 6.85C5.66 5.77 7.45 5.66 8.81 6.45C8.92 6.51 9.03 6.50 9.11 6.43L10.43 5.32C10.54 5.22 10.56 5.04 10.44 4.91L10.42 4.89L10.37 4.86C8.18 3.29 5.11 3.35 2.97 5.17C0.42 7.32 0.11 11.14 2.27 13.68C4.05 15.78 6.96 16.35 9.35 15.29ZM16.76 15.82C13.44 15.82 10.74 13.12 10.74 9.80C10.74 6.48 13.44 3.78 16.76 3.78C20.08 3.78 22.78 6.48 22.78 9.80C22.78 13.12 20.08 15.82 16.76 15.82ZM16.76 5.96C14.64 5.96 12.92 7.69 12.92 9.80C12.92 11.91 14.64 13.62 16.76 13.62C18.87 13.62 20.58 11.91 20.58 9.80C20.58 7.69 18.87 5.96 16.76 5.96ZM27.38 15.81C28.74 15.82 30.10 15.37 31.22 14.45C33.77 12.35 34.15 8.55 32.03 5.99C30.86 4.55 29.12 3.79 27.38 3.79L24.39 3.79C24.23 3.79 24.11 3.92 24.11 4.06L24.11 15.47C24.11 15.67 24.23 15.81 24.39 15.81ZM30.35 7.38C31.70 9.00 31.46 11.42 29.82 12.75C29.12 13.34 28.25 13.64 27.38 13.62L26.29 13.62L26.29 5.98L27.38 5.98C28.49 5.98 29.60 6.45 30.35 7.38ZM43.01 15.54C43.01 15.69 42.88 15.82 42.74 15.82L35.08 15.82C34.93 15.82 34.80 15.69 34.80 15.54L34.80 4.06C34.80 3.91 34.93 3.78 35.08 3.78L42.46 3.78C42.62 3.78 42.74 3.91 42.74 4.06L42.74 5.70C42.74 5.85 42.62 5.96 42.46 5.96L36.99 5.96L36.99 8.71L42.18 8.71C42.34 8.71 42.46 8.82 42.46 8.97L42.46 10.61C42.46 10.77 42.34 10.89 42.18 10.89L36.99 10.89L36.99 13.62L42.74 13.62C42.88 13.62 43.01 13.75 43.01 13.90ZM52.16 9.80C52.92 9.13 53.30 8.23 53.30 7.34C53.30 6.38 52.86 5.46 52.09 4.80C51.30 4.13 50.20 3.78 48.93 3.78L44.83 3.78C44.67 3.78 44.55 3.91 44.55 4.07L44.55 5.21L46.89 8.71L44.55 8.71L44.55 15.53C44.55 15.68 44.67 15.82 44.83 15.82L48.93 15.82C51.80 15.82 53.30 14.03 53.30 12.26C53.30 11.33 52.89 10.44 52.16 9.80ZM47.68 5.96L48.93 5.96C50.43 5.96 51.11 6.68 51.11 7.34C51.11 7.91 50.60 8.51 49.49 8.67ZM46.73 13.62L46.73 10.89L48.93 10.89C50.43 10.89 51.11 11.61 51.11 12.26C51.11 12.92 50.43 13.62 48.93 13.62ZM63.18 12.05C63.18 13.22 62.71 14.22 61.82 14.92C61.08 15.50 60.12 15.82 59.08 15.82C58.04 15.82 57.08 15.50 56.34 14.92C55.45 14.22 54.98 13.22 54.98 12.05L54.98 4.07C54.98 3.92 55.10 3.78 55.26 3.78L56.90 3.78C57.05 3.78 57.16 3.92 57.16 4.07L57.16 12.05C57.16 13.58 58.88 13.64 59.08 13.64C59.28 13.64 61.00 13.58 61.00 12.05L61.00 4.07C61.00 3.92 61.12 3.78 61.26 3.78L62.92 3.78C63.06 3.78 63.18 3.92 63.18 4.07ZM68.14 15.81C69.50 15.82 70.85 15.37 71.97 14.45C74.52 12.35 74.90 8.55 72.79 5.99C71.61 4.55 69.87 3.79 68.14 3.79L65.14 3.79C64.99 3.79 64.86 3.92 64.86 4.06L64.86 15.47C64.86 15.67 64.99 15.81 65.14 15.81ZM71.11 7.38C72.45 9.00 72.21 11.42 70.57 12.75C69.87 13.34 69.01 13.64 68.14 13.62L67.05 13.62L67.05 5.98L68.14 5.98C69.24 5.98 70.35 6.45 71.11 7.38ZM78.83 15.81C80.19 15.82 81.55 15.37 82.67 14.45C85.22 12.35 85.60 8.55 83.48 5.99C82.31 4.55 80.57 3.79 78.83 3.79L75.84 3.79C75.68 3.79 75.56 3.92 75.56 4.06L75.56 15.47C75.56 15.67 75.68 15.81 75.84 15.81ZM81.80 7.38C83.15 9.00 82.91 11.42 81.27 12.75C80.57 13.34 79.70 13.64 78.83 13.62L77.74 13.62L77.74 5.98L78.83 5.98C79.94 5.98 81.05 6.45 81.80 7.38ZM93.49 4.06C93.49 4.10 93.49 4.13 93.48 4.17L93.45 4.21L90.41 10.05L89.95 10.96L87.51 15.62L87.50 15.67C87.50 15.68 87.50 15.68 87.49 15.68C87.44 15.75 87.36 15.81 87.26 15.81L85.41 15.81C85.26 15.81 85.15 15.68 85.15 15.51C85.15 15.48 85.15 15.46 85.16 15.43L85.20 15.34L88.03 9.91L85.16 4.20C85.15 4.14 85.13 4.10 85.13 4.06C85.13 4.03 85.13 3.99 85.15 3.96L85.19 3.88C85.25 3.81 85.32 3.77 85.41 3.77L87.23 3.77C87.33 3.77 87.43 3.82 87.47 3.91L89.28 7.52L91.13 3.95C91.14 3.93 91.14 3.92 91.14 3.92L91.17 3.88C91.21 3.81 91.29 3.77 91.38 3.77L93.23 3.77C93.38 3.77 93.49 3.91 93.49 4.06Z"></path></g><!----><g data-v-423bf9ae="" id="37d9e072-a471-4960-8f4f-815e3e4f4a9e" transform="matrix(1.8110838241606806,0,0,1.8110838241606806,-4.972410373207424,-47.33637088035235)" stroke="none" fill="#ffffff"><circle cx="49.677" cy="35.638" r="9.332"></circle><circle cx="77.467" cy="39.087" r="7.765"></circle><path d="M96.085 70.657l-6.016-14.561c-.802.415-1.298.516-2.512.885-.938.273-5.024 1.277-14.509 1.277-2.709 0-4.978-.084-6.876-.206v10.895a5.294 5.294 0 0 0 5.294 5.294h11.999c2.278 0 4.206-1.449 4.952-3.469l1.076 2.606a3.565 3.565 0 1 0 6.592-2.721z"></path><circle cx="21.889" cy="39.087" r="7.764"></circle><path d="M3.271 70.657l6.015-14.561c.802.415 1.297.516 2.512.885.938.273 5.025 1.277 14.509 1.277 2.709 0 4.978-.084 6.876-.206v10.895a5.294 5.294 0 0 1-5.294 5.294h-12c-2.278 0-4.206-1.449-4.951-3.469l-1.076 2.606a3.566 3.566 0 1 1-6.591-2.721z"></path><path d="M87.352 49s-9.371 1.273-14.408 1.273c-3.383 0-8.709-.438-11.85-.814C59.972 48.47 58.503 48 56.89 48H42.466c-1.614 0-3.083.47-4.205 1.459-3.141.377-8.467.882-11.849.882-5.037 0-14.408-1.307-14.408-1.307a3.341 3.341 0 0 0-3.356 3.337c0 1.854.955 2.632 3.767 3.469 0 0 3.181 1.149 13.84 1.149 4.326 0 7.745-.214 9.745-.463v13.472C36 73.514 38.951 76 42.466 76H56.89c3.514 0 6.11-2.486 6.11-6.001V56.527c3 .249 5.598.459 9.922.459 10.658 0 13.954-1.154 13.954-1.154 2.812-.837 3.8-1.622 3.8-3.477 0-1.852-1.472-3.355-3.324-3.355z"></path></g><!----></svg>